<?xml version="1.0" standalone="no"?>
<!DOCTYPE svg PUBLIC "-//W3C//DTD SVG 20010904//EN"
 "http://www.w3.org/TR/2001/REC-SVG-20010904/DTD/svg10.dtd">
<svg version="1.0" xmlns="http://www.w3.org/2000/svg"
 width="688.000000pt" height="688.000000pt" viewBox="0 0 688.000000 688.000000"
 preserveAspectRatio="xMidYMid meet">
<metadata>
Created by potrace 1.14, written by Peter Selinger 2001-2017
</metadata>
<g transform="translate(0.000000,688.000000) scale(0.100000,-0.100000)"
fill="#000000" stroke="none">
<path d="M2242 3274 c-75 -52 -65 -256 14 -292 16 -8 100 -12 244 -12 l220 0
0 -796 c0 -863 0 -855 -55 -964 -108 -213 -496 -259 -675 -80 -63 63 -93 131
-110 252 -5 36 -15 78 -21 92 -27 59 -184 87 -273 47 -67 -29 -80 -65 -74
-201 8 -164 53 -272 164 -389 101 -108 261 -189 434 -222 97 -18 319 -15 415
5 168 37 313 117 398 222 52 63 108 164 126 229 40 137 41 170 41 1121 0 920
0 921 -21 948 -42 54 -60 56 -448 56 -308 0 -360 -2 -379 -16z"/>
<path d="M4165 3284 c-11 -2 -45 -9 -75 -15 -153 -31 -257 -85 -361 -188 -95
-95 -150 -200 -179 -341 -18 -88 -20 -139 -20 -739 0 -413 4 -668 11 -710 27
-169 105 -322 212 -416 60 -53 204 -127 292 -149 160 -41 381 -41 540 0 81 21
210 82 277 132 154 114 241 287 242 482 1 150 -30 190 -158 198 -82 5 -149
-12 -180 -47 -9 -10 -24 -64 -35 -123 -23 -128 -49 -190 -103 -245 -61 -62
-140 -94 -253 -100 -281 -17 -443 105 -475 357 -8 57 -10 284 -7 670 4 636 3
630 63 739 70 130 261 202 459 172 189 -28 283 -126 319 -335 9 -52 23 -97 33
-109 29 -33 78 -47 159 -47 89 0 138 19 160 62 39 75 21 265 -36 381 -80 162
-253 292 -465 348 -61 16 -117 22 -240 25 -88 1 -169 1 -180 -2z"/>
</g>
</svg>
