<svg xmlns="http://www.w3.org/2000/svg" width="66" height="66"><path d="M32.997 1.79C15.329 1.79 1 16.117 1 33.79c0 14.139 9.168 26.132 21.884 30.363 1.601.295 2.185-.693 2.185-1.542 0-.76-.028-2.772-.044-5.441-8.9 1.933-10.779-4.29-10.779-4.29-1.455-3.698-3.553-4.682-3.553-4.682-2.906-1.984.22-1.945.22-1.945 3.212.226 4.901 3.299 4.901 3.299 2.854 4.89 7.49 3.477 9.313 2.658.291-2.067 1.118-3.478 2.032-4.277-7.106-.807-14.577-3.554-14.577-15.816 0-3.493 1.248-6.351 3.295-8.587-.33-.809-1.428-4.064.314-8.468 0 0 2.686-.86 8.799 3.28 2.552-.71 5.29-1.064 8.011-1.078 2.719.014 5.455.367 8.011 1.078 6.11-4.14 8.791-3.28 8.791-3.28 1.746 4.404.648 7.66.32 8.468 2.051 2.236 3.289 5.094 3.289 8.587 0 12.294-7.483 14.999-14.61 15.79 1.147.989 2.17 2.941 2.17 5.925 0 4.279-.039 7.73-.039 8.78 0 .856.578 1.852 2.2 1.54C55.84 59.91 65 47.924 65 33.79 65 16.117 50.671 1.79 32.997 1.79" fill="#fff" fill-rule="evenodd"/></svg>