<?xml version="1.0" encoding="UTF-8" standalone="no"?>
<!-- Created with Inkscape (http://www.inkscape.org/) -->

<svg
   xmlns:dc="http://purl.org/dc/elements/1.1/"
   xmlns:cc="http://creativecommons.org/ns#"
   xmlns:rdf="http://www.w3.org/1999/02/22-rdf-syntax-ns#"
   xmlns:svg="http://www.w3.org/2000/svg"
   xmlns="http://www.w3.org/2000/svg"
   xmlns:sodipodi="http://sodipodi.sourceforge.net/DTD/sodipodi-0.dtd"
   xmlns:inkscape="http://www.inkscape.org/namespaces/inkscape"
   width="66"
   height="66"
   id="svg4911"
   version="1.1"
   inkscape:version="0.48.4 r9943 custom"
   sodipodi:docname="resume.svg">
  <defs
     id="defs4913" />
  <sodipodi:namedview
     id="base"
     pagecolor="#ffffff"
     bordercolor="#666666"
     borderopacity="1.0"
     inkscape:pageopacity="0.0"
     inkscape:pageshadow="2"
     inkscape:zoom="3.959798"
     inkscape:cx="46.442742"
     inkscape:cy="24.878569"
     inkscape:document-units="px"
     inkscape:current-layer="layer1"
     showgrid="false"
     inkscape:window-width="877"
     inkscape:window-height="652"
     inkscape:window-x="0"
     inkscape:window-y="23"
     inkscape:window-maximized="0" />
  <metadata
     id="metadata4916">
    <rdf:RDF>
      <cc:Work
         rdf:about="">
        <dc:format>image/svg+xml</dc:format>
        <dc:type
           rdf:resource="http://purl.org/dc/dcmitype/StillImage" />
        <dc:title></dc:title>
      </cc:Work>
    </rdf:RDF>
  </metadata>
  <g
     inkscape:label="Layer 1"
     inkscape:groupmode="layer"
     id="layer1"
     transform="translate(0,-986.36218)">
    <path
       inkscape:connector-curvature="0"
       style="fill:#ffffff;stroke:none"
       d="m 13.063992,986.86247 c -3.1931038,0 -5.774992,2.55117 -5.774992,5.74428 l 0,53.48015 c 0,3.1931 2.5818882,5.775 5.774992,5.775 l 39.872016,0 c 3.193104,0 5.774992,-2.5819 5.774992,-5.775 l 0,-53.48015 c 0,-3.19311 -2.581888,-5.74428 -5.774992,-5.74428 l -39.872016,0 z m 0.06144,4.23909 7.188021,0 c 0.955975,0 1.72021,0.76424 1.72021,1.72021 l 0,6.75797 c 0,0.95596 -0.764235,1.72026 -1.72021,1.72026 l -7.188021,0 c -0.955975,0 -1.720211,-0.7643 -1.720211,-1.72026 l 0,-6.75797 c 0,-0.95597 0.764236,-1.72021 1.720211,-1.72021 z m 12.37937,6.26648 19.352366,0 c 0.823803,0 1.474466,0.65067 1.474466,1.47447 0,0.8238 -0.650663,1.47449 -1.474466,1.47449 l -19.352366,0 c -0.823804,0 -1.505184,-0.65069 -1.505184,-1.47449 0,-0.8238 0.68138,-1.47447 1.505184,-1.47447 z m -8.78536,9.92196 22.362734,0 c 0.823804,0 1.505184,0.6814 1.505184,1.5052 0,0.8238 -0.68138,1.4745 -1.505184,1.4745 l -22.362734,0 c -0.823803,0 -1.474465,-0.6507 -1.474465,-1.4745 0,-0.8238 0.650662,-1.5052 1.474465,-1.5052 z m 5.34494,4.9456 23.253556,0 c 0.576664,0 1.044414,0.4677 1.044414,1.0444 0,0.5766 -0.46775,1.0137 -1.044414,1.0137 l -23.253556,0 c -0.576664,0 -1.044414,-0.4371 -1.044414,-1.0137 0,-0.5767 0.46775,-1.0444 1.044414,-1.0444 z m -5.34494,7.8945 22.362734,0 c 0.823804,0 1.505184,0.6814 1.505184,1.5052 0,0.8239 -0.68138,1.4745 -1.505184,1.4745 l -22.362734,0 c -0.823803,0 -1.474465,-0.6506 -1.474465,-1.4745 0,-0.8238 0.650662,-1.5052 1.474465,-1.5052 z m 5.34494,4.9457 23.253556,0 c 0.576664,0 1.044414,0.4677 1.044414,1.0444 0,0.5766 -0.46775,1.0444 -1.044414,1.0444 l -23.253556,0 c -0.576664,0 -1.044414,-0.4678 -1.044414,-1.0444 0,-0.5767 0.46775,-1.0444 1.044414,-1.0444 z m -5.34494,7.9252 22.362734,0 c 0.823804,0 1.505184,0.6506 1.505184,1.4745 0,0.8238 -0.68138,1.5051 -1.505184,1.5051 l -22.362734,0 c -0.823803,0 -1.474465,-0.6813 -1.474465,-1.5051 0,-0.8239 0.650662,-1.4745 1.474465,-1.4745 z m 5.34494,4.9149 23.253556,0 c 0.576664,0 1.044414,0.4677 1.044414,1.0444 0,0.5766 -0.46775,1.0444 -1.044414,1.0444 l -23.253556,0 c -0.576664,0 -1.044414,-0.4678 -1.044414,-1.0444 0,-0.5767 0.46775,-1.0444 1.044414,-1.0444 z"
       id="rect4801" />
  </g>
</svg>
