<svg xmlns="http://www.w3.org/2000/svg" width="66" height="66"><path d="M13.064.5C9.871.5 7.289 3.051 7.289 6.245v53.48a5.77 5.77 0 0 0 5.775 5.775h39.872a5.77 5.77 0 0 0 5.775-5.775V6.245C58.711 3.05 56.129.5 52.936.5H13.064zm.061 4.24h7.188c.956 0 1.72.764 1.72 1.72v6.758c0 .956-.764 1.72-1.72 1.72h-7.188c-.956 0-1.72-.764-1.72-1.72V6.46c0-.956.764-1.72 1.72-1.72zm12.38 6.266h19.352c.824 0 1.475.65 1.475 1.474s-.651 1.475-1.475 1.475H25.505c-.824 0-1.505-.65-1.505-1.475 0-.823.681-1.474 1.505-1.474zm-8.786 9.922h22.363c.824 0 1.505.681 1.505 1.505 0 .824-.681 1.475-1.505 1.475H16.72c-.823 0-1.474-.651-1.474-1.475 0-.824.65-1.505 1.474-1.505zm5.345 4.945h23.254c.577 0 1.044.468 1.044 1.045 0 .576-.467 1.014-1.044 1.014H22.064c-.576 0-1.044-.438-1.044-1.014 0-.577.468-1.045 1.044-1.045zm-5.345 7.895h22.363c.824 0 1.505.681 1.505 1.505 0 .824-.681 1.475-1.505 1.475H16.72c-.823 0-1.474-.651-1.474-1.475 0-.824.65-1.505 1.474-1.505zm5.345 4.946h23.254a1.045 1.045 0 0 1 0 2.088H22.064a1.045 1.045 0 0 1 0-2.088zm-5.345 7.925h22.363c.824 0 1.505.65 1.505 1.474s-.681 1.505-1.505 1.505H16.72c-.823 0-1.474-.68-1.474-1.505 0-.824.65-1.474 1.474-1.474zm5.345 4.915h23.254a1.045 1.045 0 0 1 0 2.089H22.064a1.045 1.045 0 0 1 0-2.09z" fill="#fff"/></svg>