<svg xmlns="http://www.w3.org/2000/svg" width="620" height="149"><defs><linearGradient id="a"><stop offset="0" stop-color="#7fd3d1"/><stop offset="1" stop-color="#a9e5d6"/></linearGradient></defs><path d="M0 150h20.457c15.501 0 31.113-.278 46.278-3.485s29.712-9.287 42.625-17.854c12.913-8.566 24.123-19.465 34.395-31.062 10.272-11.596 19.728-23.91 30.333-35.204C208.898 25.331 257.834 0 308.71 0c50.876 0 99.812 25.331 134.621 62.395 10.606 11.293 20.062 23.608 30.334 35.204 10.272 11.597 21.482 22.496 34.395 31.062 12.913 8.567 27.46 14.647 42.625 17.854C565.849 149.722 581.46 150 596.96 150H620 0" fill="#fff"/></svg>