<?xml version="1.0" encoding="UTF-8" standalone="no"?>
<!-- Created with Inkscape (http://www.inkscape.org/) -->

<svg
   xmlns:dc="http://purl.org/dc/elements/1.1/"
   xmlns:cc="http://creativecommons.org/ns#"
   xmlns:rdf="http://www.w3.org/1999/02/22-rdf-syntax-ns#"
   xmlns:svg="http://www.w3.org/2000/svg"
   xmlns="http://www.w3.org/2000/svg"
   version="1.1"
   width="66"
   height="66"
   id="svg4162">
  <defs
     id="defs4164" />
  <metadata
     id="metadata4167">
    <rdf:RDF>
      <cc:Work
         rdf:about="">
        <dc:format>image/svg+xml</dc:format>
        <dc:type
           rdf:resource="http://purl.org/dc/dcmitype/StillImage" />
        <dc:title></dc:title>
      </cc:Work>
    </rdf:RDF>
  </metadata>
  <g
     transform="translate(-404.14286,-497.78245)"
     id="layer1"
     style="fill:#000000">
    <path
       d="m 437.1399,499.57232 c -17.66829,0 -31.99702,14.32677 -31.99702,32.00096 0,14.13817 9.16811,26.13116 21.88402,30.3626 1.60102,0.29467 2.18447,-0.69345 2.18447,-1.5421 0,-0.76024 -0.0275,-2.77184 -0.0432,-5.44153 -8.90094,1.93302 -10.77896,-4.29037 -10.77896,-4.29037 -1.45566,-3.6971 -3.55369,-4.68129 -3.55369,-4.68129 -2.90544,-1.9841 0.22002,-1.94481 0.22002,-1.94481 3.21188,0.2259 4.90131,3.29831 4.90131,3.29831 2.85434,4.88953 7.49046,3.47708 9.31347,2.65791 0.29074,-2.06661 1.11778,-3.47708 2.03125,-4.27661 -7.10543,-0.8074 -14.57625,-3.5537 -14.57625,-15.81582 0,-3.4928 1.24743,-6.35108 3.29439,-8.58663 -0.33003,-0.80936 -1.42816,-4.06446 0.31431,-8.46877 0,0 2.68541,-0.86043 8.79879,3.28064 2.55183,-0.71113 5.29028,-1.06473 8.01105,-1.07848 2.7188,0.0141 5.45528,0.36735 8.01104,1.07848 6.10945,-4.14107 8.79093,-3.28064 8.79093,-3.28064 1.7464,4.40431 0.64827,7.65941 0.32021,8.46877 2.05088,2.23555 3.28849,5.09383 3.28849,8.58663 0,12.29354 -7.4826,14.9986 -14.60964,15.79028 1.14724,0.98811 2.17072,2.94078 2.17072,5.92479 0,4.27858 -0.0393,7.73013 -0.0393,8.77914 0,0.8565 0.57755,1.85248 2.20018,1.54013 12.7061,-4.24125 21.86635,-16.22638 21.86635,-30.36063 0,-17.67419 -14.32873,-32.00096 -32.00293,-32.00096"
       id="path4259-3"
       style="fill:#000000;fill-opacity:1;fill-rule:evenodd;stroke:none" />
  </g>
</svg>
